{
    "asset" : {
        "generator" : "Khronos glTF Blender I/O v1.2.75",
        "version" : "2.0"
    },
    "scene" : 0,
    "scenes" : [
        {
            "name" : "Scene",
            "nodes" : [
                0,
                1,
                2,
                3
            ]
        }
    ],
    "nodes" : [
        {
            "name" : "Light",
            "rotation" : [
                0.16907575726509094,
                0.7558803558349609,
                -0.27217137813568115,
                0.570947527885437
            ],
            "translation" : [
                4.076245307922363,
                5.903861999511719,
                -1.0054539442062378
            ]
        },
        {
            "name" : "Camera",
            "rotation" : [
                0.483536034822464,
                0.33687159419059753,
                -0.20870360732078552,
                0.7804827094078064
            ],
            "translation" : [
                7.358891487121582,
                4.958309173583984,
                6.925790786743164
            ]
        },
        {
            "mesh" : 0,
            "name" : "Plane",
            "translation" : [
                5.335430145263672,
                0,
                4.365227699279785
            ]
        },
        {
            "mesh" : 1,
            "name" : "Cube"
        }
    ],
    "materials" : [
        {
            "doubleSided" : true,
            "emissiveFactor" : [
                0,
                0,
                0
            ],
            "name" : "Face_Interna",
            "pbrMetallicRoughness" : {
                "baseColorFactor" : [
                    0.03071345016360283,
                    0.03071345016360283,
                    0.03071345016360283,
                    1
                ],
                "metallicFactor" : 0,
                "roughnessFactor" : 0.5
            }
        },
        {
            "doubleSided" : true,
            "emissiveFactor" : [
                0,
                0,
                0
            ],
            "name" : "Face_Externa",
            "pbrMetallicRoughness" : {
                "baseColorFactor" : [
                    0.21223078668117523,
                    0.215860515832901,
                    0.2195262312889099,
                    1
                ],
                "metallicFactor" : 0,
                "roughnessFactor" : 0.5
            }
        }
    ],
    "meshes" : [
        {
            "name" : "Plane.001",
            "primitives" : [
                {
                    "attributes" : {
                        "POSITION" : 0,
                        "NORMAL" : 1,
                        "TEXCOORD_0" : 2
                    },
                    "indices" : 3
                }
            ]
        },
        {
            "name" : "Cube",
            "primitives" : [
                {
                    "attributes" : {
                        "POSITION" : 4,
                        "NORMAL" : 5,
                        "TEXCOORD_0" : 6
                    },
                    "indices" : 7,
                    "material" : 0
                },
                {
                    "attributes" : {
                        "POSITION" : 8,
                        "NORMAL" : 9,
                        "TEXCOORD_0" : 10
                    },
                    "indices" : 11,
                    "material" : 1
                }
            ]
        }
    ],
    "accessors" : [
        {
            "bufferView" : 0,
            "componentType" : 5126,
            "count" : 565,
            "max" : [
                -4.633430480957031,
                0.7535741925239563,
                0.8393550515174866
            ],
            "min" : [
                -6.033430576324463,
                -0.7464258074760437,
                -0.8606449365615845
            ],
            "type" : "VEC3"
        },
        {
            "bufferView" : 1,
            "componentType" : 5126,
            "count" : 565,
            "type" : "VEC3"
        },
        {
            "bufferView" : 2,
            "componentType" : 5126,
            "count" : 565,
            "type" : "VEC2"
        },
        {
            "bufferView" : 3,
            "componentType" : 5123,
            "count" : 1392,
            "type" : "SCALAR"
        },
        {
            "bufferView" : 4,
            "componentType" : 5126,
            "count" : 254,
            "max" : [
                1,
                0.5,
                1
            ],
            "min" : [
                -1,
                -0.4993695914745331,
                -0.5
            ],
            "type" : "VEC3"
        },
        {
            "bufferView" : 5,
            "componentType" : 5126,
            "count" : 254,
            "type" : "VEC3"
        },
        {
            "bufferView" : 6,
            "componentType" : 5126,
            "count" : 254,
            "type" : "VEC2"
        },
        {
            "bufferView" : 7,
            "componentType" : 5123,
            "count" : 606,
            "type" : "SCALAR"
        },
        {
            "bufferView" : 8,
            "componentType" : 5126,
            "count" : 832,
            "max" : [
                1,
                1,
                1
            ],
            "min" : [
                -1,
                -1,
                -1
            ],
            "type" : "VEC3"
        },
        {
            "bufferView" : 9,
            "componentType" : 5126,
            "count" : 832,
            "type" : "VEC3"
        },
        {
            "bufferView" : 10,
            "componentType" : 5126,
            "count" : 832,
            "type" : "VEC2"
        },
        {
            "bufferView" : 11,
            "componentType" : 5123,
            "count" : 2430,
            "type" : "SCALAR"
        }
    ],
    "bufferViews" : [
        {
            "buffer" : 0,
            "byteLength" : 6780,
            "byteOffset" : 0
        },
        {
            "buffer" : 0,
            "byteLength" : 6780,
            "byteOffset" : 6780
        },
        {
            "buffer" : 0,
            "byteLength" : 4520,
            "byteOffset" : 13560
        },
        {
            "buffer" : 0,
            "byteLength" : 2784,
            "byteOffset" : 18080
        },
        {
            "buffer" : 0,
            "byteLength" : 3048,
            "byteOffset" : 20864
        },
        {
            "buffer" : 0,
            "byteLength" : 3048,
            "byteOffset" : 23912
        },
        {
            "buffer" : 0,
            "byteLength" : 2032,
            "byteOffset" : 26960
        },
        {
            "buffer" : 0,
            "byteLength" : 1212,
            "byteOffset" : 28992
        },
        {
            "buffer" : 0,
            "byteLength" : 9984,
            "byteOffset" : 30204
        },
        {
            "buffer" : 0,
            "byteLength" : 9984,
            "byteOffset" : 40188
        },
        {
            "buffer" : 0,
            "byteLength" : 6656,
            "byteOffset" : 50172
        },
        {
            "buffer" : 0,
            "byteLength" : 4860,
            "byteOffset" : 56828
        }
    ],
    "buffers" : [
        {
            "byteLength" : 61688,
            "uri" : "data:application/octet-stream;base64,"
        }
    ]
}
